<svg xmlns="http://www.w3.org/2000/svg" version="1.1" xmlns:xlink="http://www.w3.org/1999/xlink" xmlns:svgjs="http://svgjs.dev/svgjs" width="1000" height="750" viewBox="0 0 1000 750"><rect width="1000" height="750" fill="#000000"></rect><g transform="matrix(0.834,0,0,0.834,82.49454545454546,115.4193570850203)"><svg viewBox="0 0 396 247" data-background-color="#471aa0" preserveAspectRatio="xMidYMid meet" height="623" width="1000" xmlns="http://www.w3.org/2000/svg" xmlns:xlink="http://www.w3.org/1999/xlink"><g id="tight-bounds" transform="matrix(1,0,0,1,0.2400000000000091,-0.09999999999999432)"><svg viewBox="0 0 395.52 247.2" height="247.2" width="395.52"><g><svg></svg></g><g><svg viewBox="0 0 395.52 247.2" height="247.2" width="395.52"><g transform="matrix(1,0,0,1,75.54432,93.08810740027509)"><svg viewBox="0 0 244.43135999999998 61.0237851994498" height="61.0237851994498" width="244.43135999999998"><g><svg viewBox="0 0 244.43135999999998 61.0237851994498" height="61.0237851994498" width="244.43135999999998"><g><svg viewBox="0 0 244.43135999999998 61.0237851994498" height="61.0237851994498" width="244.43135999999998"><g><svg viewBox="0 0 244.43135999999998 61.0237851994498" height="61.0237851994498" width="244.43135999999998"><g id="textblocktransform"><svg viewBox="0 0 244.43135999999998 61.0237851994498" height="61.0237851994498" width="244.43135999999998" id="textblock"><g><svg viewBox="0 0 244.43135999999998 61.0237851994498" height="61.0237851994498" width="244.43135999999998"><g transform="matrix(1,0,0,1,0,0)"><svg width="244.43135999999998" viewBox="1 -35.54999923706055 145.38999938964844 36.29999923706055" height="61.0237851994498" data-palette-color="#ffffff"><path d="M5.7-21.55L5.7-21.55 5.65-30.05Q5.65-31.4 4.8-32.73 3.95-34.05 2-34.05L2-34.05Q1-34.05 1-34.7L1-34.7Q1-35.5 2.15-35.5L2.15-35.5 4-35.55 7-35.4 15.25-35.55Q19.95-35.55 23.35-33.18 26.75-30.8 26.75-26.35L26.75-26.35Q26.75-23.9 25.85-21.98 24.95-20.05 23.68-18.95 22.4-17.85 20.8-17.1L20.8-17.1Q18.25-15.95 16.25-15.95 14.25-15.95 12.6-16.32 10.95-16.7 10.95-17.1L10.95-17.1Q10.95-17.85 11.6-17.85L11.6-17.85Q11.85-17.85 12.63-17.65 13.4-17.45 14.35-17.45 15.3-17.45 16.6-17.78 17.9-18.1 19.3-18.82 20.7-19.55 21.6-21.03 22.5-22.5 22.5-24.45L22.5-24.45Q22.5-27.8 19.8-30.68 17.1-33.55 12.35-33.55L12.35-33.55Q10.8-33.55 10.25-32.63 9.7-31.7 9.7-28.45L9.7-28.45 9.6-7.8Q9.6-2 13-1.6L13-1.6Q13.85-1.5 14.4-1.5L14.4-1.5Q15.8-1.6 15.8-0.5L15.8-0.5Q15.8 0.35 14.65 0.35L14.65 0.35 7.5 0.1 2.85 0.3Q1.3 0.3 1.3-0.25L1.3-0.25Q1.3-1.1 1.85-1.3L1.85-1.3Q2.1-1.4 2.2-1.45 2.3-1.5 2.68-1.58 3.05-1.65 3.18-1.7 3.3-1.75 3.5-1.78 3.7-1.8 3.78-1.83 3.85-1.85 4.03-1.98 4.2-2.1 4.3-2.33 4.4-2.55 4.58-2.93 4.75-3.3 5.03-4.08 5.3-4.85 5.5-11.4 5.7-17.95 5.7-21.55ZM30.1-18.15L30.1-18.15 29.55-18.2Q28.6-18.2 28.6-19L28.6-19Q28.6-19.55 29.27-19.83 29.95-20.1 31.77-20.68 33.6-21.25 34.65-21.73 35.7-22.2 35.9-22.2L35.9-22.2Q36.55-22.2 36.55-21.2L36.55-21.2 36.5-19.85Q36.5-18.05 36.62-17.88 36.75-17.7 36.87-17.7 37-17.7 37.65-18.7 38.3-19.7 39.5-20.73 40.7-21.75 41.87-21.75 43.05-21.75 44.3-20.93 45.55-20.1 45.55-19.28 45.55-18.45 45.15-17.75L45.15-17.75Q44.45-16.55 43.85-16.55L43.85-16.55Q43.45-16.55 42.42-17.15 41.4-17.75 40.05-17.75 38.7-17.75 37.52-16.65 36.35-15.55 36.35-14.65L36.35-14.65 36.35-9.45 36.4-5.1 36.45-4.2Q36.45-3.15 37.15-2.4 37.85-1.65 38.47-1.55 39.1-1.45 39.55-1.4 40-1.35 40.25-1.33 40.5-1.3 40.8-1.2L40.8-1.2Q41.35-1.1 41.35-0.48 41.35 0.15 40.75 0.15L40.75 0.15 36.5-0.1 31.3 0.15Q30.4 0.15 30.3-0.05 30.2-0.25 30.2-0.45L30.2-0.45Q30.2-1.1 30.85-1.3L30.85-1.3Q32.15-1.6 32.42-2.58 32.7-3.55 32.7-6.75L32.7-6.75 32.65-14.8 32.6-16.3Q32.6-16.85 32.45-17.2L32.45-17.2Q32.05-18.15 30.1-18.15ZM54.55 0.75L54.55 0.75Q48.65 0.75 48.65-4.25L48.65-4.25Q48.65-7.85 51.65-9.2L51.65-9.2Q54.15-10.25 59.3-11.1L59.3-11.1Q59.45-11.15 59.7-11.18 59.95-11.2 60.22-11.25 60.5-11.3 60.65-11.35L60.65-11.35Q61-11.5 61-12.05L61-12.05 61.1-14.65Q61.1-17.5 59.45-18.78 57.8-20.05 56.25-20.05L56.25-20.05Q52.65-20.05 52.65-17.05L52.65-17.05 52.85-15.25Q52.85-14.25 51.95-14.25L51.95-14.25Q51.25-14.25 50.4-14.5L50.4-14.5Q48.85-15 48.85-16.2L48.85-16.2Q48.85-18.15 51.47-19.93 54.1-21.7 56.75-21.7 59.4-21.7 60.9-21.2 62.4-20.7 63.12-20.08 63.85-19.45 64.25-18.4L64.25-18.4Q64.75-17.15 64.75-14.48 64.75-11.8 64.62-9.73 64.5-7.65 64.5-5.95 64.5-4.25 64.9-3.18 65.3-2.1 65.84-1.8 66.4-1.5 66.95-1.45L66.95-1.45Q68.3-1.35 68.3-0.65L68.3-0.65Q68.3 0.4 65.15 0.4L65.15 0.4Q63.85 0.4 62.92-0.3 62-1 61.6-1.68 61.2-2.35 61.15-2.35 61.1-2.35 60.75-2.02 60.4-1.7 59.77-1.25 59.15-0.8 58.35-0.35L58.35-0.35Q56.5 0.75 54.55 0.75ZM60.65-10.4L60.65-10.4 60.15-10.3Q59-10.1 58.7-10.05 58.4-10 57.3-9.75 56.2-9.5 55.77-9.3 55.35-9.1 54.57-8.68 53.8-8.25 53.45-7.8L53.45-7.8Q52.55-6.4 52.55-4.85 52.55-3.3 53.55-2.27 54.55-1.25 56.12-1.25 57.7-1.25 58.62-1.65 59.55-2.05 60-2.55 60.45-3.05 60.7-3.9L60.7-3.9Q61-4.85 61-6.35L61-6.35 61-9.95Q61-10.4 60.65-10.4ZM81.69 0L81.69 0 78.04-0.2Q76.74-0.2 74.59-0.1L74.59-0.1 72.44 0Q71.69 0 71.69-0.45 71.69-0.9 71.94-1 72.19-1.1 72.57-1.15 72.94-1.2 73.29-1.45L73.29-1.45Q74.24-2.05 74.34-5.08 74.44-8.1 74.44-9.05L74.44-9.05 74.44-16.25Q74.44-17.85 73.87-18.4 73.29-18.95 72.29-18.95L72.29-18.95 71.79-18.95Q70.84-18.95 70.84-19.5L70.84-19.5Q70.84-20 71.92-20.15 72.99-20.3 73.62-20.48 74.24-20.65 75.27-21.08 76.29-21.5 76.92-21.8 77.54-22.1 77.74-22.1L77.74-22.1 77.84-22.1Q78.29-22.1 78.29-21.5L78.29-21.5 78.19-19.35Q78.19-18.05 78.39-18.05 78.59-18.05 78.79-18.3L78.79-18.3Q79.54-19.35 80.79-20.1L80.79-20.1Q83.04-21.5 85.09-21.5 87.14-21.5 88.74-20.88 90.34-20.25 91.24-19.33 92.14-18.4 92.74-17.2L92.74-17.2Q93.74-15.2 93.74-13.1L93.74-13.1 93.74-12.6 93.79-9.95 93.79-4.85Q93.79-2.95 94.32-2.23 94.84-1.5 96.84-1.2L96.84-1.2Q97.84-1.05 97.84-0.45L97.84-0.45Q97.84 0.05 96.84 0.05L96.84 0.05 92.74-0.2 88.89 0Q87.89 0 87.89-0.65L87.89-0.65Q87.89-1.1 88.49-1.25L88.49-1.25 89.14-1.4Q90.24-1.75 90.24-4.75L90.24-4.75 90.24-11.5Q90.24-15.35 88.34-17.32 86.44-19.3 84.04-19.3 81.64-19.3 80.04-18.15 78.44-17 78.09-16 77.74-15 77.74-8.35L77.74-8.35 77.74-6.45Q77.74-3.95 78.27-2.75 78.79-1.55 80.59-1.4L80.59-1.4Q81.09-1.4 81.87-1.23 82.64-1.05 82.64-0.65L82.64-0.65Q82.64 0 81.69 0ZM107.14 0.75L107.14 0.75Q101.24 0.75 101.24-4.25L101.24-4.25Q101.24-7.85 104.24-9.2L104.24-9.2Q106.74-10.25 111.89-11.1L111.89-11.1Q112.04-11.15 112.29-11.18 112.54-11.2 112.81-11.25 113.09-11.3 113.24-11.35L113.24-11.35Q113.59-11.5 113.59-12.05L113.59-12.05 113.69-14.65Q113.69-17.5 112.04-18.78 110.39-20.05 108.84-20.05L108.84-20.05Q105.24-20.05 105.24-17.05L105.24-17.05 105.44-15.25Q105.44-14.25 104.54-14.25L104.54-14.25Q103.84-14.25 102.99-14.5L102.99-14.5Q101.44-15 101.44-16.2L101.44-16.2Q101.44-18.15 104.06-19.93 106.69-21.7 109.34-21.7 111.99-21.7 113.49-21.2 114.99-20.7 115.72-20.08 116.44-19.45 116.84-18.4L116.84-18.4Q117.34-17.15 117.34-14.48 117.34-11.8 117.22-9.73 117.09-7.65 117.09-5.95 117.09-4.25 117.49-3.18 117.89-2.1 118.44-1.8 118.99-1.5 119.54-1.45L119.54-1.45Q120.89-1.35 120.89-0.65L120.89-0.65Q120.89 0.4 117.74 0.4L117.74 0.4Q116.44 0.4 115.52-0.3 114.59-1 114.19-1.68 113.79-2.35 113.74-2.35 113.69-2.35 113.34-2.02 112.99-1.7 112.37-1.25 111.74-0.8 110.94-0.35L110.94-0.35Q109.09 0.75 107.14 0.75ZM113.24-10.4L113.24-10.4 112.74-10.3Q111.59-10.1 111.29-10.05 110.99-10 109.89-9.75 108.79-9.5 108.37-9.3 107.94-9.1 107.17-8.68 106.39-8.25 106.04-7.8L106.04-7.8Q105.14-6.4 105.14-4.85 105.14-3.3 106.14-2.27 107.14-1.25 108.72-1.25 110.29-1.25 111.22-1.65 112.14-2.05 112.59-2.55 113.04-3.05 113.29-3.9L113.29-3.9Q113.59-4.85 113.59-6.35L113.59-6.35 113.59-9.95Q113.59-10.4 113.24-10.4ZM139.34-21.25L142.69-21.2 144.99-21.25Q145.84-21.25 146.11-21.1 146.39-20.95 146.39-20.6 146.39-20.25 146.14-20.1L146.14-20.1Q144.94-19.4 144.44-18.7L144.44-18.7Q143.19-17 140.84-12 138.49-7 136.54-3.15 134.59 0.7 133.84 0.7L133.84 0.7Q133.34 0.7 133.04 0.18 132.74-0.35 131.06-4.25 129.39-8.15 127.64-12.05 125.89-15.95 124.84-17.63 123.79-19.3 123.26-19.65 122.74-20 122.46-20.23 122.19-20.45 122.19-20.8L122.19-20.8Q122.19-21.35 123.14-21.35L123.14-21.35 126.69-21.15 129.59-21.1 131.54-21.25Q132.44-21.25 132.44-20.7L132.44-20.7Q132.44-19.85 131.24-19.85L131.24-19.85Q129.14-19.85 129.14-18.45L129.14-18.45Q129.14-17.65 129.94-15.93 130.74-14.2 131.39-12.83 132.04-11.45 132.46-10.53 132.89-9.6 133.59-7.95L133.59-7.95Q134.94-4.75 135.29-4.75L135.29-4.75Q135.79-4.75 138.34-10.8 140.89-16.85 140.89-17.93 140.89-19 140.41-19.43 139.94-19.85 139.34-19.8L139.34-19.8Q137.79-19.6 137.79-20.6L137.79-20.6Q137.79-21.25 139.34-21.25L139.34-21.25Z" opacity="1" transform="matrix(1,0,0,1,0,0)" fill="#ffffff" class="wordmark-text-0" data-fill-palette-color="primary" id="text-0"></path></svg></g></svg></g></svg></g></svg></g><g></g></svg></g></svg></g></svg></g><g><path d="M84.098 78.682A122.216 122.216 0 0 1 311.422 78.682L305.919 78.682A116.712 116.712 0 0 0 89.601 78.682L84.098 78.682M84.098 168.518A122.216 122.216 0 0 0 311.422 168.518L305.919 168.518A116.712 116.712 0 0 1 89.601 168.518L84.098 168.518" fill="#ffffff" stroke="transparent" data-fill-palette-color="tertiary"></path></g></svg></g><defs></defs></svg><rect width="395.52" height="247.2" fill="none" stroke="none" visibility="hidden"></rect></g></svg></g></svg>